# xmcd CD database file
#
# Track frame offsets:
#	150
#	33867
#	69156
#	82098
#	114704
#	142146
#	155541
#	192276
#	218995
#
# Disc length: 3395 seconds
#
# Revision: 0
# Processed by: cddbd v1.5.2PL0 Copyright (c) Steve Scherf et al.
# Submitted via: CDex 1.51
#
DISCID=800d4109
DTITLE=Scott Colley - Architect Of The Silent Moment
DYEAR=2007
DGENRE=Jazz
TTITLE0=Usual Illusion
TTITLE1=Strip Mall Ballet
TTITLE2=El Otro
TTITLE3=Architect Of The Silent Moment
TTITLE4=Masoosong
TTITLE5=Feign Tonal
TTITLE6=From Within
TTITLE7=Smoke Stack
TTITLE8=Window Of Time
EXTD=YEAR: 2007
EXTT0=
EXTT1=
EXTT2=
EXTT3=
EXTT4=
EXTT5=
EXTT6=
EXTT7=
EXTT8=
PLAYORDER=
